<?xml version="1.0" encoding="UTF-8"?>
<!DOCTYPE svg PUBLIC "-//W3C//DTD SVG 1.1//EN" "http://www.w3.org/Graphics/SVG/1.1/DTD/svg11.dtd">
<!-- Creator: CorelDRAW -->
<svg xmlns="http://www.w3.org/2000/svg" xml:space="preserve" width="6.46078in" height="3.02572in" version="1.1" style="shape-rendering:geometricPrecision; text-rendering:geometricPrecision; image-rendering:optimizeQuality; fill-rule:evenodd; clip-rule:evenodd"
viewBox="0 0 6921.19 3241.34"
 xmlns:xlink="http://www.w3.org/1999/xlink"
 xmlns:xodm="http://www.corel.com/coreldraw/odm/2003">
 <defs>
  <style type="text/css">
   <![CDATA[
    .fil2 {fill:white}
    .fil0 {fill:#1E003E}
    .fil7 {fill:#1E003E;fill-rule:nonzero}
    .fil4 {fill:white;fill-opacity:0.188235}
    .fil6 {fill:url(#id14)}
    .fil1 {fill:url(#id15)}
    .fil3 {fill:url(#id16)}
    .fil5 {fill:url(#id17)}
   ]]>
  </style>
    <mask id="id0">
  <linearGradient id="id1" gradientUnits="userSpaceOnUse" x1="1927.92" y1="933.05" x2="975.41" y2="-202.22">
   <stop offset="0" style="stop-opacity:1; stop-color:white"/>
   <stop offset="1" style="stop-opacity:0; stop-color:white"/>
  </linearGradient>
     <rect style="fill:url(#id1)" x="291.77" y="48.84" width="1430.27" height="355.05"/>
    </mask>
    <mask id="id2">
  <linearGradient id="id3" gradientUnits="userSpaceOnUse" x1="-666.37" y1="2172.99" x2="1624.22" y2="678.65">
   <stop offset="0" style="stop-opacity:1; stop-color:white"/>
   <stop offset="1" style="stop-opacity:0; stop-color:white"/>
  </linearGradient>
     <rect style="fill:url(#id3)" x="53.33" y="440.9" width="859.76" height="828.05"/>
    </mask>
    <mask id="id4">
  <linearGradient id="id5" gradientUnits="userSpaceOnUse" x1="1199.44" y1="3770.99" x2="965.68" y2="2314.44">
   <stop offset="0" style="stop-opacity:1; stop-color:white"/>
   <stop offset="1" style="stop-opacity:0; stop-color:white"/>
  </linearGradient>
     <rect style="fill:url(#id5)" x="786.72" y="2392.68" width="402.62" height="718.42"/>
    </mask>
    <mask id="id6">
  <linearGradient id="id7" gradientUnits="userSpaceOnUse" x1="2703.14" y1="2921.58" x2="1333.94" y2="2432.42">
   <stop offset="0" style="stop-opacity:1; stop-color:white"/>
   <stop offset="1" style="stop-opacity:0; stop-color:white"/>
  </linearGradient>
     <rect style="fill:url(#id7)" x="1212.84" y="2248.65" width="597.28" height="460.27"/>
    </mask>
    <mask id="id8">
  <linearGradient id="id9" gradientUnits="userSpaceOnUse" x1="2848.63" y1="2794.43" x2="3702.43" y2="2138.96">
   <stop offset="0" style="stop-opacity:1; stop-color:white"/>
   <stop offset="1" style="stop-opacity:0; stop-color:white"/>
  </linearGradient>
     <rect style="fill:url(#id9)" x="3337.87" y="2121.78" width="393.52" height="492.58"/>
    </mask>
    <mask id="id10">
  <linearGradient id="id11" gradientUnits="userSpaceOnUse" x1="2851.18" y1="772.29" x2="2180.03" y2="368.56">
   <stop offset="0" style="stop-opacity:1; stop-color:white"/>
   <stop offset="1" style="stop-opacity:0; stop-color:white"/>
  </linearGradient>
     <rect style="fill:url(#id11)" x="2038.12" y="466.64" width="541.87" height="180.44"/>
    </mask>
    <mask id="id12">
  <linearGradient id="id13" gradientUnits="userSpaceOnUse" x1="6056.27" y1="2515.25" x2="6026.12" y2="2151.75">
   <stop offset="0" style="stop-opacity:1; stop-color:white"/>
   <stop offset="1" style="stop-opacity:0; stop-color:white"/>
  </linearGradient>
     <rect style="fill:url(#id13)" x="5183.74" y="2151.75" width="1198.92" height="217.94"/>
    </mask>
  <linearGradient id="id14" gradientUnits="userSpaceOnUse" x1="6634.52" y1="2074.35" x2="5592.6" y2="2357.81">
   <stop offset="0" style="stop-opacity:1; stop-color:#D91557"/>
   <stop offset="1" style="stop-opacity:1; stop-color:#FF4800"/>
  </linearGradient>
  <linearGradient id="id15" gradientUnits="userSpaceOnUse" x1="1950.39" y1="742.2" x2="-293.73" y2="-133.45">
   <stop offset="0" style="stop-opacity:1; stop-color:#6FDE00"/>
   <stop offset="1" style="stop-opacity:1; stop-color:#336B00"/>
  </linearGradient>
  <linearGradient id="id16" gradientUnits="userSpaceOnUse" x1="3040.99" y1="2401.67" x2="157.82" y2="623.06">
   <stop offset="0" style="stop-opacity:1; stop-color:#FF4800"/>
   <stop offset="0.458824" style="stop-opacity:1; stop-color:#FF0055"/>
   <stop offset="1" style="stop-opacity:1; stop-color:#FFEA00"/>
  </linearGradient>
  <linearGradient id="id17" gradientUnits="userSpaceOnUse" x1="1733.07" y1="646.49" x2="2607.43" y2="646.5">
   <stop offset="0" style="stop-opacity:1; stop-color:#15158F"/>
   <stop offset="1" style="stop-opacity:1; stop-color:#00AAFF"/>
  </linearGradient>
 </defs>
 <g id="Layer_x0020_1">
  <metadata id="CorelCorpID_0Corel-Layer"/>
  <g id="_105553410371136">
   <path class="fil0" d="M2823.09 1802.75c-8.89,-49.11 -89.97,-88.48 -149.69,-91.31 -40.2,-1.9 -67.7,8.91 -103.66,17.11 -173.52,39.58 -346.46,-19.63 -358.99,-223.5l667.24 -0.17c6.45,-46.14 0.18,-154.93 -8.35,-200.76 -29.13,-156.76 -143.1,-298.18 -296.8,-336.87 -127.24,-31.21 -255.02,-10.69 -353.68,44.5 -183.27,91.3 -260.21,349.64 -211.87,567.39 61.55,254.71 268.62,360.13 510.92,341.16 110.53,-8.65 229.65,-41.75 304.86,-117.56zm1053.57 343.64c37.79,-47.61 122.35,-140.17 262.81,-89.54 4.54,1.63 8.99,3.5 13.52,5.09 37.3,13.16 76.26,19.76 116.9,19.76 62.9,0 114.78,-9.54 155.62,-28.32 40.83,-18.78 61.11,-44.72 61.11,-77.51 0,-55.75 -45.02,-83.78 -135.35,-83.78 -24.75,0 -61.12,2.98 -109.41,8.94 -48.3,5.97 -84.67,8.95 -109.42,8.95 -150.26,0 -225.38,-53.96 -225.38,-161.88 0,-30.71 12.52,-61.12 37.27,-90.93 25.04,-29.81 53.96,-51.59 87.05,-65.59 -106.73,-68.87 -160.09,-166.65 -160.09,-293.06 0,-99.88 36.67,-182.45 110.31,-247.74 73.63,-65.29 163.97,-97.79 271.29,-97.79 84.08,0 154.43,15.8 211.08,47.1 30.41,-38.97 164.99,-78.39 223.93,10.51l-90.96 102.48c36.07,54.55 54.26,118.95 54.26,193.19 0,106.13 -32.5,190.8 -97.48,254.31 -65.3,63.5 -147.28,95.39 -246.55,95.39 -15.81,0 -36.67,-1.49 -62.91,-4.17l-36.07 -4.77c-3.88,0 -19.38,6.26 -46.21,18.78 -26.83,12.82 -40.25,25.64 -40.25,39.05 0,23.55 19.98,35.18 60.22,35.18 18.19,0 48.59,-4.47 90.93,-13.42 42.64,-8.94 79,-13.42 109.42,-13.42 212.56,0 318.99,85.56 318.99,256.39 0,94.51 -42.63,168.74 -127.6,222.7 -85.27,53.96 -187.83,80.79 -307.97,80.79 -143.39,0 -273.08,-42.33 -389.05,-126.7zm-2808.93 -1435.78l556.47 726.46 0 -790.56 217.72 0 0 1275.96c-71.42,0 -144.07,-39.92 -174.55,-83.96l-537.49 -686.97 0 562.34c0,139.67 -76.57,208.59 -217.72,208.59l0 -1293.81c56.9,0 120.08,37 155.57,81.95zm5732.85 954.6c66.6,0 120.6,53.99 120.6,120.6 0,66.6 -53.99,120.6 -120.6,120.6 -66.61,0 -120.6,-53.99 -120.6,-120.6 0,-66.61 53.99,-120.6 120.6,-120.6zm-1214.71 137.54c-8.89,-49.11 -89.97,-88.48 -149.69,-91.31 -40.2,-1.9 -67.7,8.91 -103.65,17.11 -173.51,39.58 -346.46,-19.63 -359,-223.5l667.24 -0.17c6.46,-46.14 0.18,-154.93 -8.34,-200.76 -29.13,-156.76 -143.1,-298.18 -296.8,-336.87 -127.24,-31.21 -255.02,-10.69 -353.68,44.5 -183.27,91.3 -260.21,349.64 -211.87,567.39 61.55,254.71 268.62,360.13 510.93,341.16 110.53,-8.65 229.65,-41.75 304.85,-117.56zm-377.13 -675.64c129.97,0 235.34,95.83 235.34,214.04l-470.67 0c0,-118.21 105.36,-214.04 235.34,-214.04zm554.6 779.29l218.23 0 0 -176.25 0 -7.82 0 -7.82 0 -7.82 0 -7.82 0 -7.82 0 -7.82 0 -7.82 0 -7.81 0 -7.82 0 -7.81 0 -7.82 0 -7.81 0 -7.82 0 -7.82 0 -7.81 0 -7.82 0 -7.81 0 -7.82 0 -7.81 0 -7.82 0 -7.81 0 -7.82 0 -7.82 0 -7.81 0 -7.82 0 -7.81 0 -7.82 0 -1.85 0 -287.33c20.27,-26.83 48.59,-49.49 84.96,-67.37 36.38,-18.19 70.66,-27.14 102.57,-27.14 69.16,0 118.86,18.57 149.36,55.16 30.61,36.74 45.91,94.8 45.91,174.7l0 364.85c0,104.74 101.6,176.25 218.23,176.25l0 -574.19c0,-119.26 -32.2,-212.57 -96.29,-279.05 -64.4,-66.78 -152.05,-100.17 -263.25,-100.17 -115.67,0 -203.32,35.18 -262.64,105.24 -35.87,-85.49 -106.99,-110.09 -197.06,-101.98l0 561.03 0 3.13 0 14.84 0 14.85 0 14.85 0 14.85 0 14.85 0 14.85 0 14.84 0 14.85 0 14.84 0 14.85 0 14.85 0 14.84 0 14.85 0 14.85 0 14.85 0 14.85 0 14.85 0 14.85 0 14.85 0 14.84 0 14.85 0 14.85 0 14.84 0 14.85 0 14.84 0 14.85zm-2416.19 -310.65l-228.07 310.65 -259.37 0 360.44 -483.56 -342.94 -465.51c191.03,-12.54 266.46,2.98 341.78,119.12l129.65 174.37 218.74 -292.95 248.4 -0.54 -339.84 463.13 112.29 149.92 0.01 0 251.71 335.96c-164.61,10.8 -274.15,0.34 -352.43,-120.39l-140.36 -190.19zm747.73 -296.93c0,54.85 15.5,98.97 46.21,132.07 30.7,33.09 72.14,49.79 124.02,49.79 52.17,0 92.12,-16.1 120.45,-48.6 28.02,-32.19 42.03,-76.62 42.03,-133.26 0,-46.51 -15.2,-86.16 -45.31,-118.36 -30.11,-32.49 -69.17,-48.59 -117.17,-48.59 -50.38,0 -91.23,15.51 -122.83,46.8 -31.6,31.01 -47.4,71.26 -47.4,120.15zm-1648.93 -171.71c129.97,0 235.33,95.83 235.33,214.04l-470.67 0c0,-118.21 105.36,-214.04 235.34,-214.04z"/>
   <path class="fil1" d="M1758.32 388.55c119.57,-234.78 -301,-420.62 -721.69,-383.9 -452.76,39.52 -961.34,321.96 -1036.63,859.22 237.86,-458.71 598.88,-605.83 964.9,-615.66 408.73,-10.97 660.02,326.63 793.41,140.34z"/>
   <path class="fil2" style="mask:url(#id0)" d="M295.49 400.16c184.31,-142.29 377.73,-229.31 665.76,-236.48 170.04,-4.57 366.67,39.57 518.98,108.64 171.38,77.73 212.2,51.02 230.87,21.53 27.22,-43.02 -21.22,-120.39 -167.73,-174.66 -143.01,-52.98 -340.82,-76.22 -492.1,-63.01 -281.95,24.61 -565.23,142.4 -755.78,343.98z"/>
   <path class="fil3" d="M1437.82 2410.37c-120.03,38.63 -204.72,232 -206.58,379.01 0,154.39 66.7,179.16 66.7,281.73 0,82.45 -55.28,131.89 -113.44,129.94 -57.03,-1.91 -117.08,-56.43 -117.08,-137.15 0,-81.45 76.42,-141.34 60.86,-271.06 -71.35,-266.23 -340.76,-343.52 -476.97,-427.75l0.24 -0.03c-349.43,-175.46 -592.43,-552.36 -628.68,-907.9 -62.89,-616.95 363.78,-1216.79 1188.61,-1007.96 -715.05,0 -940.13,491.28 -870.84,933.29 60.11,383.31 338.27,725.88 925.19,725.88l2306.2 -15.21c305.7,14.85 262.01,468.08 -226.98,555.23 -555.53,99.01 -969.28,-418.34 -1259.74,-366.72 -230.73,63.81 -79.18,461.3 -301.13,461.3 -97.15,0 -143.29,-117.08 -176.16,-207.26 -31.01,-85.04 -101.93,-150.98 -170.22,-125.35z"/>
   <path class="fil2" style="mask:url(#id2)" d="M305.71 1064.41c8.89,-48.97 21.93,-97.15 39.43,-143.84 56.7,-151.28 155.91,-275.5 292.13,-362.72 83.85,-53.69 176.16,-90.04 272.1,-113.08 -89.34,-1.48 -178.62,8.18 -265.27,32.43 -147.67,41.34 -275.68,122.04 -375.41,238.62 -130.92,153.04 -198.45,349.79 -211.64,549.41l1.91 0c68.94,-81.16 152.53,-149.5 246.74,-200.82z"/>
   <path class="fil4" d="M1425.42 2374.7c16.13,-5.92 33.31,-8.5 50.47,-7.45 81.62,4.96 141.8,84.76 167.61,155.54 21.69,59.48 63.55,182.44 140.69,182.44 20.61,0 40.41,-4.09 56.1,-18.2 39.6,-35.65 50.97,-142.64 60.45,-193.54 20.43,-109.78 54.81,-215.09 174.53,-248.2l1.71 -0.48 1.74 -0.31c89.38,-15.89 182.75,15.96 263.34,52.18 99.32,44.64 194.99,101.82 291.38,152.74 221.74,117.14 449.34,207.37 705.01,161.8 127.48,-22.72 262.78,-80.31 339.54,-189.52 43.26,-61.54 70.82,-151.23 28.92,-220.6 -55.74,-92.29 -205.61,-103.49 -286.65,-14.63 -85.73,93.99 -177.22,120.04 -341.74,120.04 -370.57,0 -558.01,-152.9 -815.88,-166.97l-85.1 0.57c-25.52,1.73 -51.88,4.93 -79.28,9.81 -1127.07,301.99 -1683.2,99.23 -2018.71,-580.57 71.99,317.91 300.51,617.13 588.96,761.97l111.6 56.03 -6.05 0.74c5.5,2.77 10.96,5.53 16.4,8.3 49.66,25.36 98.59,51.76 144.84,83.04 111.77,75.64 185.42,171.04 220.95,303.61l0.7 2.61 0.32 2.67c6.72,56.02 7.49,105.02 -12.57,157.32 -11.85,30.89 -31.25,66.47 -37.49,98.45 -1.27,6.53 -2.01,13.13 -2.01,19.79 0,26.8 8.81,52.69 27.13,72.51 13.57,14.68 33.09,26.23 53.46,26.91 49.7,1.67 74.42,-48.3 74.42,-92.21 0,-25.48 -5.06,-46.21 -14.55,-69.67 -11.1,-27.45 -24.02,-52.72 -33.31,-81.18 -14,-42.85 -9.27,-86.14 -9,-131.12 0.89,-144 73.84,-366 222.11,-414.45z"/>
   <path class="fil2" style="mask:url(#id4)" d="M790.44 2396.4c49.66,25.36 98.59,51.76 144.84,83.04 111.77,75.64 185.42,171.04 220.95,303.61l0.7 2.61 0.32 2.67c6.72,56.02 7.49,105.02 -12.57,157.32 -11.85,30.89 -31.25,66.47 -37.49,98.45 -1.27,6.53 -2.01,13.13 -2.01,19.79 0,13.39 2.19,26.57 6.69,38.86 35.2,14.46 64.89,-5.53 70,-52.19 8.45,-76.03 0.01,-150.88 0.01,-208.95 0,-179.1 -74.6,-305.04 -391.43,-445.22z"/>
   <path class="fil2" style="mask:url(#id6)" d="M1425.42 2374.7c16.13,-5.92 33.31,-8.5 50.47,-7.45 81.62,4.96 141.8,84.76 167.61,155.54 21.62,59.28 63.27,181.58 139.91,182.42 14.86,-40.52 22.99,-84.28 22.99,-129.95 0,-136.83 -72.8,-256.67 -181.78,-322.88 -147.82,23.02 -283.41,34.21 -408.06,33.71l117.38 146.34c26.92,-26.34 57.47,-46.6 91.48,-57.72z"/>
   <path class="fil2" style="mask:url(#id8)" d="M3341.59 2610.65c126.56,-23.1 260.26,-80.64 336.39,-188.95 43.26,-61.54 70.82,-151.23 28.92,-220.6 -47.13,-78.03 -161.54,-98.1 -244.75,-48.72 110.64,149.51 19.65,288.02 -120.56,458.26z"/>
   <path class="fil5" d="M2618.92 556.53c54.13,118.68 -152.17,185.36 -366.2,117.54 -203.84,-64.6 -209.17,-224.29 -444.99,-216.93 327.2,-76.9 344.41,116.57 520.37,104.32 134.09,-9.33 227.81,-100.79 290.82,-4.92z"/>
   <path class="fil2" style="mask:url(#id10)" d="M2557.99 532.85c-22.62,-6.11 -61.21,6.8 -82.88,13.59 -48.36,15.16 -93.25,29.45 -144.38,33.01 -46.15,3.21 -86.73,-5.45 -128.21,-25.44 -50.31,-24.25 -92.17,-58.96 -145.55,-78.58 -5.01,-1.84 -10.05,-3.53 -15.12,-5.06 1.82,1.37 3.64,2.75 5.46,4.17 32.89,25.52 62.69,54.73 95.76,80.06 37.55,28.76 75.84,49.49 121.07,63.82 69.89,22.15 130.39,32.05 203.13,19.3 74.86,-13.13 142.69,-69.84 90.72,-104.87z"/>
   <path class="fil6" d="M5524.64 2414.57c103.42,0 159.48,-117.32 452.44,-199.73 93.02,-28.58 123.68,103.19 204.31,103.19 69.45,0 106.84,-93.82 298.51,-156.38 95.86,-31.29 426.68,10.83 426.68,-54.76l-1227.27 0 -885.31 0c-32.64,101.53 309.29,14.51 443.25,122.74 103.77,83.83 158.74,184.94 287.39,184.94z"/>
   <path class="fil2" style="mask:url(#id12)" d="M6382.66 2151.75l-1198.92 0c29.86,10.01 57.95,23.77 81.71,42.96 34.7,28.04 65.35,59.21 97.35,90.1 24.16,23.32 50.45,47.78 80.03,64.06 25.94,14.27 52.19,20.82 81.81,20.82 6.15,0 12.21,-0.63 18.23,-1.88 38.6,-8 97.26,-50.8 131.66,-71.66 92.67,-56.21 185.94,-95.12 289.38,-124.21 120.32,-36.97 168.31,101.21 217.47,101.21 2.17,0 4.29,-0.22 6.41,-0.67 20.66,-4.34 62.94,-39.97 80.64,-52.86 37.19,-27.07 74.52,-49.29 114.22,-67.88z"/>
   <path class="fil7" d="M1534.6 3160.44l0 -40.27 26.61 0 0 40.27 -26.61 0zm72.63 0l0 -40.27 26.61 0 0 40.27 -26.61 0zm72.63 0l0 -40.27 26.61 0 0 40.27 -26.61 0zm172.23 -9.35c-1.91,0.96 -4.43,2.1 -7.55,3.42 -3.11,1.32 -6.66,2.64 -10.61,3.95 -3.96,1.32 -8.27,2.4 -12.94,3.24 -4.68,0.84 -9.53,1.26 -14.56,1.26 -11.5,0 -21.45,-3.18 -29.84,-9.53 -8.39,-6.36 -12.59,-16.25 -12.59,-29.67l0 -126.21 -25.52 0 0 -24.81 25.52 0 0 -62.56 31.64 0 0 62.56 42.07 0 0 24.81 -42.07 0 0 116.49c0.49,6.96 2.76,11.99 6.83,15.1 4.08,3.12 8.87,4.67 14.39,4.67 6.23,0 11.92,-1.02 17.08,-3.05 5.15,-2.04 8.69,-3.65 10.61,-4.85l7.55 25.17zm192.37 9.35l-31.64 0 0 -105c0,-19.41 -3.36,-33.85 -10.07,-43.32 -6.71,-9.47 -16.54,-14.2 -29.49,-14.2 -6.23,0 -12.46,1.26 -18.69,3.78 -6.24,2.52 -12.05,5.93 -17.44,10.25 -5.39,4.31 -10.19,9.47 -14.38,15.45 -4.2,5.99 -7.37,12.59 -9.53,19.78l0 113.26 -31.65 0 0 -262.48 31.65 0 0 115.06c7.43,-13.66 17.49,-24.33 30.2,-32 12.7,-7.67 26.6,-11.51 41.7,-11.51 11.03,0 20.38,2.04 28.05,6.11 7.67,4.08 13.78,9.59 18.34,16.55 4.56,6.95 7.85,15.28 9.89,24.99 2.04,9.7 3.05,20.07 3.05,31.1l0 112.18zm132.32 3.59c-14.14,0 -27.09,-2.58 -38.83,-7.73 -11.74,-5.15 -21.81,-12.16 -30.2,-21.03 -8.39,-8.87 -14.92,-19.24 -19.6,-31.1 -4.67,-11.86 -7.01,-24.39 -7.01,-37.57 0,-13.18 2.34,-25.65 7.01,-37.39 4.68,-11.75 11.27,-22.06 19.78,-30.92 8.51,-8.87 18.64,-15.88 30.39,-21.04 11.74,-5.15 24.69,-7.73 38.83,-7.73 14.15,0 27.02,2.64 38.65,7.91 11.62,5.28 21.51,12.29 29.66,21.04 8.15,8.75 14.45,18.94 18.88,30.56 4.44,11.63 6.65,23.67 6.65,36.14 0,2.64 -0.06,5.04 -0.18,7.19 -0.12,2.16 -0.3,3.84 -0.54,5.03l-155.69 0c0.72,9.35 2.87,17.86 6.47,25.53 3.59,7.66 8.27,14.26 14.02,19.77 5.75,5.52 12.29,9.83 19.6,12.95 7.31,3.12 15.04,4.67 23.19,4.67 5.76,0 11.39,-0.78 16.9,-2.34 5.51,-1.56 10.66,-3.66 15.45,-6.29 4.8,-2.64 9.05,-5.87 12.77,-9.7 3.72,-3.84 6.53,-8.15 8.45,-12.94l27.33 7.55c-3.12,6.95 -7.37,13.31 -12.77,19.06 -5.39,5.75 -11.63,10.73 -18.7,14.92 -7.07,4.2 -14.92,7.49 -23.55,9.89 -8.63,2.4 -17.61,3.59 -26.97,3.59zm64.36 -110.02c-0.72,-8.87 -2.94,-17.08 -6.65,-24.63 -3.72,-7.55 -8.39,-13.96 -14.03,-19.24 -5.63,-5.27 -12.16,-9.4 -19.59,-12.4 -7.43,-2.99 -15.34,-4.5 -23.73,-4.5 -8.39,0 -16.3,1.5 -23.73,4.5 -7.44,3 -13.96,7.19 -19.6,12.59 -5.63,5.39 -10.18,11.8 -13.66,19.23 -3.48,7.44 -5.58,15.58 -6.3,24.45l127.28 0zm221.85 110.02c-15.1,0 -29.97,-2.34 -44.59,-7.01 -14.62,-4.68 -27.21,-11.45 -37.75,-20.32l13.66 -21.21c11.02,8.39 22.05,14.68 33.07,18.88 11.03,4.19 22.66,6.29 34.88,6.29 13.66,0 24.51,-2.7 32.54,-8.09 8.03,-5.39 12.05,-13 12.05,-22.83 0,-4.55 -1.08,-8.44 -3.24,-11.68 -2.16,-3.23 -5.39,-6.05 -9.7,-8.45 -4.31,-2.4 -9.83,-4.55 -16.54,-6.47 -6.71,-1.92 -14.5,-3.96 -23.37,-6.11 -11.27,-2.88 -20.97,-5.64 -29.13,-8.27 -8.14,-2.64 -14.86,-5.75 -20.13,-9.35 -5.28,-3.6 -9.11,-7.91 -11.51,-12.94 -2.4,-5.04 -3.59,-11.27 -3.59,-18.7 0,-9.35 1.86,-17.68 5.57,-24.99 3.71,-7.31 8.81,-13.42 15.28,-18.33 6.47,-4.92 14.08,-8.63 22.83,-11.15 8.75,-2.52 18.16,-3.78 28.22,-3.78 14.15,0 27.33,2.28 39.55,6.83 12.23,4.56 22.54,10.54 30.92,17.98l-14.38 19.05c-7.92,-6.95 -16.78,-12.16 -26.61,-15.64 -9.83,-3.48 -19.89,-5.21 -30.21,-5.21 -11.51,0 -21.28,2.45 -29.3,7.37 -8.03,4.91 -12.05,12.76 -12.05,23.55 0,4.31 0.78,7.91 2.34,10.78 1.56,2.88 4.14,5.4 7.73,7.55 3.6,2.16 8.21,4.07 13.84,5.75 5.63,1.68 12.4,3.48 20.32,5.4 12.46,2.87 23.31,5.81 32.54,8.81 9.22,2.99 16.9,6.53 23.01,10.61 6.12,4.07 10.67,8.87 13.66,14.38 3,5.51 4.49,12.22 4.49,20.13 0,17.49 -6.71,31.4 -20.13,41.71 -13.42,10.31 -31.52,15.46 -54.29,15.46zm394.8 -3.59l-31.64 0 0 -105c0,-19.65 -3.18,-34.16 -9.53,-43.5 -6.36,-9.35 -15.76,-14.03 -28.22,-14.03 -12.94,0 -24.51,4.62 -34.7,13.84 -10.19,9.23 -17.44,21.16 -21.75,35.78l0 112.9 -31.64 0 0 -105c0,-20.13 -3.11,-34.75 -9.34,-43.86 -6.24,-9.11 -15.59,-13.66 -28.05,-13.66 -12.71,0 -24.22,4.49 -34.53,13.48 -10.3,8.99 -17.61,20.91 -21.93,35.78l0 113.26 -31.64 0 0 -187.69 28.77 0 0 40.27c7.67,-13.9 17.62,-24.63 29.84,-32.18 12.23,-7.55 26.01,-11.32 41.35,-11.32 15.82,0 28.35,4.26 37.57,12.77 9.23,8.51 14.93,19.48 17.08,32.9 16.78,-30.44 40.63,-45.66 71.56,-45.66 10.78,0 19.84,1.98 27.14,5.93 7.31,3.96 13.12,9.47 17.44,16.54 4.31,7.08 7.43,15.4 9.35,24.99 1.91,9.59 2.88,20.02 2.88,31.29l0 112.18zm97.44 3.59c-8.87,0 -17.14,-1.5 -24.82,-4.49 -7.66,-3 -14.32,-7.14 -19.95,-12.41 -5.63,-5.27 -10.06,-11.44 -13.3,-18.52 -3.23,-7.07 -4.85,-14.8 -4.85,-23.19 0,-8.63 1.91,-16.48 5.75,-23.55 3.83,-7.07 9.29,-13.13 16.36,-18.16 7.07,-5.04 15.46,-8.99 25.17,-11.87 9.71,-2.88 20.32,-4.31 31.82,-4.31 9.11,0 18.34,0.84 27.69,2.52 9.34,1.68 17.62,3.96 24.8,6.83l0 -15.1c0,-15.34 -4.31,-27.39 -12.94,-36.14 -8.63,-8.75 -20.85,-13.12 -36.67,-13.12 -18.94,0 -38.84,7.3 -59.69,21.93l-10.43 -20.49c24.21,-16.3 48.54,-24.45 72.99,-24.45 24.69,0 43.93,6.59 57.71,19.78 13.78,13.19 20.68,31.76 20.68,55.73l0 76.59c0,7.43 3.35,11.27 10.06,11.51l0 27.33c-3.36,0.48 -6.11,0.84 -8.27,1.08 -2.16,0.24 -4.44,0.35 -6.83,0.35 -6.23,0 -11.21,-1.86 -14.93,-5.57 -3.71,-3.71 -5.93,-8.21 -6.65,-13.48l-0.72 -13.31c-8.38,11.27 -19,19.84 -31.82,25.71 -12.82,5.88 -26.54,8.81 -41.16,8.81zm8.27 -23.73c11.27,0 21.76,-2.1 31.46,-6.29 9.71,-4.2 17.08,-9.77 22.11,-16.72 4.56,-4.55 6.83,-9.22 6.83,-14.02l0 -27.68c-15.34,-5.99 -31.28,-8.99 -47.82,-8.99 -15.82,0 -28.7,3.36 -38.65,10.07 -9.95,6.71 -14.93,15.46 -14.93,26.25 0,5.27 1.02,10.18 3.06,14.74 2.04,4.55 4.92,8.5 8.63,11.86 3.72,3.36 8.09,5.99 13.13,7.92 5.03,1.91 10.43,2.87 16.18,2.87zm241.98 -139.87c-15.82,0.48 -29.78,4.55 -41.89,12.22 -12.1,7.67 -20.67,18.34 -25.71,32l0 115.78 -31.64 0 0 -187.69 29.49 0 0 43.51c6.47,-12.94 14.98,-23.44 25.53,-31.46 10.54,-8.03 21.81,-12.52 33.8,-13.49 2.4,0 4.43,0 6.11,0 1.68,0 3.12,0.13 4.31,0.36l0 28.76zm128.37 150.66c-1.92,0.96 -4.44,2.1 -7.55,3.42 -3.12,1.32 -6.66,2.64 -10.61,3.95 -3.95,1.32 -8.27,2.4 -12.94,3.24 -4.67,0.84 -9.53,1.26 -14.56,1.26 -11.5,0 -21.45,-3.18 -29.84,-9.53 -8.39,-6.36 -12.59,-16.25 -12.59,-29.67l0 -126.21 -25.53 0 0 -24.81 25.53 0 0 -62.56 31.64 0 0 62.56 42.07 0 0 24.81 -42.07 0 0 116.49c0.49,6.96 2.76,11.99 6.83,15.1 4.08,3.12 8.87,4.67 14.39,4.67 6.23,0 11.92,-1.02 17.07,-3.05 5.15,-2.04 8.69,-3.65 10.61,-4.85l7.55 25.17zm221.49 12.94c-15.58,0 -29.3,-3.84 -41.17,-11.5 -11.86,-7.67 -21.27,-17.38 -28.22,-29.13l0 113.63 -31.64 0 0 -264.28 28.05 0 0 35.23c7.44,-11.5 17.08,-20.79 28.94,-27.86 11.87,-7.08 24.99,-10.61 39.38,-10.61 12.94,0 24.8,2.64 35.59,7.91 10.78,5.28 20.13,12.41 28.04,21.4 7.92,8.99 14.09,19.36 18.52,31.1 4.44,11.75 6.66,23.98 6.66,36.68 0,13.42 -2.04,26.07 -6.11,37.93 -4.08,11.87 -9.83,22.18 -17.26,30.92 -7.44,8.75 -16.3,15.7 -26.61,20.86 -10.31,5.15 -21.7,7.73 -34.16,7.73zm-9.71 -27.33c9.35,0 17.79,-1.98 25.35,-5.93 7.55,-3.96 14.02,-9.23 19.42,-15.82 5.39,-6.59 9.53,-14.08 12.4,-22.47 2.87,-8.38 4.31,-17.01 4.31,-25.89 0,-9.34 -1.68,-18.27 -5.04,-26.79 -3.36,-8.51 -7.91,-15.94 -13.66,-22.29 -5.75,-6.35 -12.52,-11.38 -20.31,-15.1 -7.79,-3.71 -16.24,-5.57 -25.35,-5.57 -5.75,0 -11.68,1.13 -17.8,3.41 -6.11,2.28 -11.86,5.28 -17.26,8.99 -5.39,3.72 -10.06,8.15 -14.02,13.31 -3.96,5.15 -6.54,10.61 -7.73,16.36l0 53.57c2.64,6.24 5.99,12.05 10.07,17.44 4.07,5.39 8.75,10.06 14.02,14.02 5.28,3.96 10.91,7.07 16.9,9.35 5.99,2.28 12.22,3.42 18.7,3.42zm180.86 27.33c-8.87,0 -17.14,-1.5 -24.81,-4.49 -7.66,-3 -14.32,-7.14 -19.95,-12.41 -5.63,-5.27 -10.06,-11.44 -13.3,-18.52 -3.23,-7.07 -4.85,-14.8 -4.85,-23.19 0,-8.63 1.91,-16.48 5.75,-23.55 3.83,-7.07 9.29,-13.13 16.36,-18.16 7.07,-5.04 15.46,-8.99 25.17,-11.87 9.7,-2.88 20.32,-4.31 31.82,-4.31 9.11,0 18.34,0.84 27.69,2.52 9.34,1.68 17.62,3.96 24.8,6.83l0 -15.1c0,-15.34 -4.31,-27.39 -12.94,-36.14 -8.63,-8.75 -20.85,-13.12 -36.67,-13.12 -18.94,0 -38.84,7.3 -59.69,21.93l-10.43 -20.49c24.21,-16.3 48.54,-24.45 72.99,-24.45 24.69,0 43.93,6.59 57.71,19.78 13.78,13.19 20.67,31.76 20.67,55.73l0 76.59c0,7.43 3.35,11.27 10.07,11.51l0 27.33c-3.36,0.48 -6.11,0.84 -8.27,1.08 -2.16,0.24 -4.43,0.35 -6.83,0.35 -6.23,0 -11.21,-1.86 -14.92,-5.57 -3.71,-3.71 -5.93,-8.21 -6.65,-13.48l-0.72 -13.31c-8.38,11.27 -19,19.84 -31.82,25.71 -12.82,5.88 -26.54,8.81 -41.17,8.81zm8.27 -23.73c11.27,0 21.76,-2.1 31.46,-6.29 9.71,-4.2 17.08,-9.77 22.11,-16.72 4.56,-4.55 6.83,-9.22 6.83,-14.02l0 -27.68c-15.34,-5.99 -31.28,-8.99 -47.82,-8.99 -15.82,0 -28.7,3.36 -38.65,10.07 -9.95,6.71 -14.93,15.46 -14.93,26.25 0,5.27 1.02,10.18 3.06,14.74 2.04,4.55 4.92,8.5 8.63,11.86 3.72,3.36 8.09,5.99 13.13,7.92 5.03,1.91 10.43,2.87 16.18,2.87zm142.74 20.14l0 -187.69 31.64 0 0 187.69 -31.64 0zm0 -222.93l0 -39.55 31.64 0 0 39.55 -31.64 0zm245.58 222.93l-31.64 0 0 -105c0,-20.13 -3.06,-34.75 -9.17,-43.86 -6.11,-9.11 -15.4,-13.66 -27.86,-13.66 -6.47,0 -12.94,1.26 -19.42,3.78 -6.47,2.52 -12.59,5.93 -18.34,10.25 -5.75,4.31 -10.78,9.47 -15.1,15.45 -4.31,5.99 -7.55,12.59 -9.7,19.78l0 113.26 -31.64 0 0 -187.69 28.76 0 0 40.27c7.43,-13.19 18.16,-23.73 32.18,-31.64 14.02,-7.91 29.3,-11.87 45.84,-11.87 10.79,0 19.78,1.98 26.96,5.93 7.2,3.96 12.94,9.47 17.26,16.54 4.32,7.08 7.37,15.4 9.17,24.99 1.8,9.59 2.7,20.02 2.7,31.29l0 112.18zm144.54 -9.35c-1.91,0.96 -4.43,2.1 -7.55,3.42 -3.11,1.32 -6.66,2.64 -10.61,3.95 -3.96,1.32 -8.27,2.4 -12.94,3.24 -4.68,0.84 -9.53,1.26 -14.56,1.26 -11.51,0 -21.45,-3.18 -29.84,-9.53 -8.39,-6.36 -12.59,-16.25 -12.59,-29.67l0 -126.21 -25.52 0 0 -24.81 25.52 0 0 -62.56 31.64 0 0 62.56 42.07 0 0 24.81 -42.07 0 0 116.49c0.49,6.96 2.76,11.99 6.83,15.1 4.08,3.12 8.87,4.67 14.39,4.67 6.23,0 11.92,-1.02 17.08,-3.05 5.15,-2.04 8.69,-3.65 10.61,-4.85l7.55 25.17zm107.87 -84.86c0,-13.18 2.27,-25.65 6.83,-37.39 4.55,-11.74 11.02,-21.99 19.41,-30.75 8.39,-8.75 18.4,-15.7 30.03,-20.85 11.62,-5.15 24.63,-7.73 39.01,-7.73 18.69,0 34.82,4.14 48.36,12.41 13.55,8.27 23.79,19.35 30.75,33.26l-30.92 9.71c-4.8,-8.87 -11.51,-15.77 -20.14,-20.67 -8.63,-4.92 -18.22,-7.37 -28.76,-7.37 -8.63,0 -16.78,1.74 -24.45,5.21 -7.67,3.48 -14.26,8.33 -19.78,14.56 -5.52,6.23 -9.89,13.55 -13.13,21.94 -3.23,8.39 -4.85,17.62 -4.85,27.68 0,9.83 1.68,19.06 5.04,27.69 3.36,8.63 7.85,16.12 13.48,22.47 5.63,6.36 12.22,11.32 19.78,14.92 7.55,3.6 15.64,5.39 24.27,5.39 5.52,0 10.97,-0.78 16.36,-2.34 5.4,-1.56 10.31,-3.66 14.74,-6.29 4.44,-2.64 8.33,-5.69 11.69,-9.17 3.36,-3.48 5.76,-7.25 7.2,-11.33l30.92 9.35c-2.88,6.95 -6.89,13.3 -12.05,19.05 -5.15,5.76 -11.21,10.67 -18.16,14.74 -6.95,4.08 -14.69,7.31 -23.2,9.71 -8.51,2.4 -17.44,3.59 -26.79,3.59 -14.14,0 -27.09,-2.64 -38.83,-7.91 -11.75,-5.27 -21.82,-12.35 -30.2,-21.21 -8.39,-8.87 -14.93,-19.24 -19.6,-31.1 -4.68,-11.87 -7.01,-24.39 -7.01,-37.58zm291.96 97.8c-14.14,0 -27.02,-2.64 -38.65,-7.91 -11.62,-5.27 -21.57,-12.35 -29.85,-21.21 -8.27,-8.87 -14.68,-19.18 -19.23,-30.92 -4.56,-11.75 -6.83,-24.09 -6.83,-37.03 0,-13.18 2.33,-25.65 7.01,-37.4 4.67,-11.75 11.15,-22.05 19.41,-30.92 8.27,-8.87 18.22,-15.94 29.85,-21.22 11.62,-5.27 24.39,-7.91 38.29,-7.91 13.91,0 26.73,2.64 38.48,7.91 11.75,5.28 21.75,12.35 30.02,21.22 8.27,8.87 14.74,19.17 19.41,30.92 4.68,11.75 7.02,24.22 7.02,37.4 0,12.94 -2.28,25.29 -6.83,37.03 -4.56,11.74 -11.03,22.05 -19.42,30.92 -8.39,8.87 -18.4,15.94 -30.02,21.21 -11.63,5.27 -24.51,7.91 -38.65,7.91zm-62.2 -96.72c0,9.83 1.62,18.94 4.85,27.33 3.24,8.39 7.67,15.7 13.31,21.93 5.63,6.24 12.23,11.15 19.78,14.74 7.55,3.6 15.64,5.39 24.27,5.39 8.63,0 16.72,-1.8 24.27,-5.39 7.55,-3.6 14.2,-8.57 19.96,-14.92 5.75,-6.35 10.25,-13.78 13.48,-22.29 3.24,-8.51 4.85,-17.68 4.85,-27.51 0,-9.59 -1.62,-18.63 -4.85,-27.14 -3.23,-8.51 -7.73,-15.94 -13.48,-22.29 -5.75,-6.36 -12.41,-11.33 -19.96,-14.93 -7.55,-3.59 -15.64,-5.39 -24.27,-5.39 -8.63,0 -16.71,1.86 -24.27,5.57 -7.55,3.72 -14.15,8.76 -19.78,15.1 -5.63,6.35 -10.07,13.78 -13.31,22.29 -3.23,8.51 -4.85,17.68 -4.85,27.51zm478.58 93.13l-31.64 0 0 -105c0,-19.65 -3.17,-34.16 -9.53,-43.5 -6.35,-9.35 -15.76,-14.03 -28.22,-14.03 -12.95,0 -24.51,4.62 -34.7,13.84 -10.19,9.23 -17.44,21.16 -21.75,35.78l0 112.9 -31.64 0 0 -105c0,-20.13 -3.12,-34.75 -9.35,-43.86 -6.23,-9.11 -15.58,-13.66 -28.05,-13.66 -12.71,0 -24.21,4.49 -34.52,13.48 -10.3,8.99 -17.61,20.91 -21.93,35.78l0 113.26 -31.65 0 0 -187.69 28.77 0 0 40.27c7.67,-13.9 17.62,-24.63 29.84,-32.18 12.23,-7.55 26.01,-11.32 41.35,-11.32 15.82,0 28.35,4.26 37.57,12.77 9.23,8.51 14.92,19.48 17.08,32.9 16.78,-30.44 40.63,-45.66 71.55,-45.66 10.79,0 19.84,1.98 27.15,5.93 7.31,3.96 13.12,9.47 17.44,16.54 4.31,7.08 7.43,15.4 9.35,24.99 1.91,9.59 2.88,20.02 2.88,31.29l0 112.18zm150.3 3.59c-15.59,0 -29.3,-3.84 -41.18,-11.5 -11.86,-7.67 -21.27,-17.38 -28.22,-29.13l0 113.63 -31.64 0 0 -264.28 28.04 0 0 35.23c7.44,-11.5 17.08,-20.79 28.95,-27.86 11.87,-7.08 24.99,-10.61 39.38,-10.61 12.94,0 24.81,2.64 35.59,7.91 10.79,5.28 20.14,12.41 28.05,21.4 7.92,8.99 14.09,19.36 18.52,31.1 4.44,11.75 6.66,23.98 6.66,36.68 0,13.42 -2.04,26.07 -6.11,37.93 -4.08,11.87 -9.83,22.18 -17.26,30.92 -7.44,8.75 -16.3,15.7 -26.61,20.86 -10.31,5.15 -21.7,7.73 -34.15,7.73zm-9.71 -27.33c9.35,0 17.8,-1.98 25.35,-5.93 7.55,-3.96 14.02,-9.23 19.41,-15.82 5.39,-6.59 9.53,-14.08 12.41,-22.47 2.87,-8.38 4.31,-17.01 4.31,-25.89 0,-9.34 -1.68,-18.27 -5.04,-26.79 -3.36,-8.51 -7.91,-15.94 -13.66,-22.29 -5.75,-6.35 -12.53,-11.38 -20.32,-15.1 -7.79,-3.71 -16.23,-5.57 -25.35,-5.57 -5.75,0 -11.69,1.13 -17.8,3.41 -6.11,2.28 -11.86,5.28 -17.26,8.99 -5.39,3.72 -10.07,8.15 -14.02,13.31 -3.96,5.15 -6.54,10.61 -7.73,16.36l0 53.57c2.64,6.24 5.99,12.05 10.06,17.44 4.07,5.39 8.75,10.06 14.02,14.02 5.28,3.96 10.91,7.07 16.9,9.35 5.99,2.28 12.22,3.42 18.69,3.42zm180.86 27.33c-8.87,0 -17.14,-1.5 -24.81,-4.49 -7.67,-3 -14.32,-7.14 -19.95,-12.41 -5.63,-5.27 -10.07,-11.44 -13.31,-18.52 -3.23,-7.07 -4.85,-14.8 -4.85,-23.19 0,-8.63 1.91,-16.48 5.75,-23.55 3.84,-7.07 9.29,-13.13 16.36,-18.16 7.08,-5.04 15.46,-8.99 25.17,-11.87 9.7,-2.88 20.32,-4.31 31.82,-4.31 9.11,0 18.34,0.84 27.69,2.52 9.35,1.68 17.62,3.96 24.81,6.83l0 -15.1c0,-15.34 -4.31,-27.39 -12.94,-36.14 -8.63,-8.75 -20.85,-13.12 -36.68,-13.12 -18.94,0 -38.83,7.3 -59.68,21.93l-10.43 -20.49c24.21,-16.3 48.54,-24.45 72.99,-24.45 24.69,0 43.93,6.59 57.71,19.78 13.78,13.19 20.67,31.76 20.67,55.73l0 76.59c0,7.43 3.35,11.27 10.07,11.51l0 27.33c-3.36,0.48 -6.11,0.84 -8.27,1.08 -2.16,0.24 -4.43,0.35 -6.83,0.35 -6.23,0 -11.21,-1.86 -14.92,-5.57 -3.72,-3.71 -5.93,-8.21 -6.65,-13.48l-0.72 -13.31c-8.39,11.27 -19,19.84 -31.82,25.71 -12.82,5.88 -26.55,8.81 -41.17,8.81zm8.27 -23.73c11.27,0 21.75,-2.1 31.46,-6.29 9.71,-4.2 17.08,-9.77 22.11,-16.72 4.55,-4.55 6.83,-9.22 6.83,-14.02l0 -27.68c-15.34,-5.99 -31.28,-8.99 -47.82,-8.99 -15.82,0 -28.7,3.36 -38.65,10.07 -9.95,6.71 -14.92,15.46 -14.92,26.25 0,5.27 1.02,10.18 3.05,14.74 2.04,4.55 4.92,8.5 8.63,11.86 3.72,3.36 8.09,5.99 13.13,7.92 5.03,1.91 10.43,2.87 16.18,2.87zm305.63 20.14l-31.64 0 0 -105c0,-20.13 -3.06,-34.75 -9.17,-43.86 -6.11,-9.11 -15.4,-13.66 -27.86,-13.66 -6.47,0 -12.94,1.26 -19.42,3.78 -6.47,2.52 -12.59,5.93 -18.34,10.25 -5.75,4.31 -10.79,9.47 -15.1,15.45 -4.31,5.99 -7.55,12.59 -9.7,19.78l0 113.26 -31.64 0 0 -187.69 28.76 0 0 40.27c7.43,-13.19 18.16,-23.73 32.18,-31.64 14.02,-7.91 29.3,-11.87 45.84,-11.87 10.79,0 19.78,1.98 26.97,5.93 7.19,3.96 12.94,9.47 17.26,16.54 4.32,7.08 7.38,15.4 9.17,24.99 1.8,9.59 2.7,20.02 2.7,31.29l0 112.18zm54.29 51.05c3.12,0.49 6.23,0.84 9.35,1.08 3.12,0.24 5.51,0.36 7.19,0.36 2.88,0 5.45,-0.66 7.74,-1.98 2.27,-1.32 4.55,-3.89 6.82,-7.73 2.28,-3.83 4.86,-9.16 7.73,-16 2.88,-6.83 6.47,-15.76 10.79,-26.79l-79.46 -187.69 32.72 0 64 159.28 58.25 -159.28 30.21 0 -91.33 236.95c-3.36,8.39 -8.93,15.76 -16.72,22.12 -7.79,6.35 -18.52,9.53 -32.18,9.53 -2.16,0 -4.37,-0.12 -6.65,-0.36 -2.28,-0.24 -5.09,-0.72 -8.45,-1.44l0 -28.05z"/>
  </g>
 </g>
</svg>
